<mxfile host="app.diagrams.net" agent="Mozilla/5.0 (Windows NT 10.0; Win64; x64) AppleWebKit/537.36 (KHTML, like Gecko) Chrome/135.0.0.0 Safari/537.36" version="28.2.7">
  <diagram name="Página-1" id="6NrdFQZ9TeDTGCrF9_9l">
    <mxGraphModel grid="1" page="1" gridSize="10" guides="1" tooltips="1" connect="1" arrows="1" fold="1" pageScale="1" pageWidth="827" pageHeight="1169" math="0" shadow="0">
      <root>
        <mxCell id="0" />
        <mxCell id="1" parent="0" />
        <mxCell id="8tt9v9W3umYrC3b42L4H-1" style="edgeStyle=orthogonalEdgeStyle;rounded=0;orthogonalLoop=1;jettySize=auto;html=1;entryX=0.5;entryY=0;entryDx=0;entryDy=0;" edge="1" parent="1" target="8tt9v9W3umYrC3b42L4H-2">
          <mxGeometry relative="1" as="geometry">
            <mxPoint x="1224" y="280" as="sourcePoint" />
          </mxGeometry>
        </mxCell>
        <mxCell id="8tt9v9W3umYrC3b42L4H-2" value="PANTALLA INICIO" style="rounded=0;whiteSpace=wrap;html=1;" vertex="1" parent="1">
          <mxGeometry x="1164" y="310" width="120" height="60" as="geometry" />
        </mxCell>
        <mxCell id="8tt9v9W3umYrC3b42L4H-3" value="¿Pulsa inicio?" style="rhombus;whiteSpace=wrap;html=1;rounded=0;" vertex="1" parent="1">
          <mxGeometry x="1184" y="440" width="80" height="80" as="geometry" />
        </mxCell>
        <mxCell id="8tt9v9W3umYrC3b42L4H-4" value="¿Pulsa Ajustes?" style="rhombus;whiteSpace=wrap;html=1;rounded=0;" vertex="1" parent="1">
          <mxGeometry x="1340" y="440" width="80" height="80" as="geometry" />
        </mxCell>
        <mxCell id="8tt9v9W3umYrC3b42L4H-5" value="" style="endArrow=classic;html=1;rounded=0;exitX=0.5;exitY=1;exitDx=0;exitDy=0;" edge="1" parent="1" source="8tt9v9W3umYrC3b42L4H-2">
          <mxGeometry width="50" height="50" relative="1" as="geometry">
            <mxPoint x="1240" y="450" as="sourcePoint" />
            <mxPoint x="1224" y="440" as="targetPoint" />
          </mxGeometry>
        </mxCell>
        <mxCell id="8tt9v9W3umYrC3b42L4H-6" value="" style="endArrow=classic;html=1;rounded=0;exitX=1;exitY=0.5;exitDx=0;exitDy=0;" edge="1" parent="1" source="8tt9v9W3umYrC3b42L4H-3">
          <mxGeometry width="50" height="50" relative="1" as="geometry">
            <mxPoint x="1100" y="410" as="sourcePoint" />
            <mxPoint x="1340" y="480" as="targetPoint" />
          </mxGeometry>
        </mxCell>
        <mxCell id="8tt9v9W3umYrC3b42L4H-7" value="" style="endArrow=classic;html=1;rounded=0;exitX=1;exitY=0.5;exitDx=0;exitDy=0;entryX=1;entryY=0.5;entryDx=0;entryDy=0;" edge="1" parent="1" source="8tt9v9W3umYrC3b42L4H-4" target="8tt9v9W3umYrC3b42L4H-2">
          <mxGeometry width="50" height="50" relative="1" as="geometry">
            <mxPoint x="1450" y="480" as="sourcePoint" />
            <mxPoint x="1500" y="480" as="targetPoint" />
            <Array as="points">
              <mxPoint x="1500" y="480" />
              <mxPoint x="1500" y="340" />
            </Array>
          </mxGeometry>
        </mxCell>
        <mxCell id="8tt9v9W3umYrC3b42L4H-8" value="" style="endArrow=classic;html=1;rounded=0;exitX=0.5;exitY=1;exitDx=0;exitDy=0;" edge="1" parent="1" source="8tt9v9W3umYrC3b42L4H-3">
          <mxGeometry width="50" height="50" relative="1" as="geometry">
            <mxPoint x="1240" y="580" as="sourcePoint" />
            <mxPoint x="1224" y="590" as="targetPoint" />
          </mxGeometry>
        </mxCell>
        <mxCell id="8tt9v9W3umYrC3b42L4H-9" value="" style="edgeStyle=orthogonalEdgeStyle;rounded=0;orthogonalLoop=1;jettySize=auto;html=1;entryX=0.5;entryY=0;entryDx=0;entryDy=0;" edge="1" parent="1" source="8tt9v9W3umYrC3b42L4H-10" target="8tt9v9W3umYrC3b42L4H-82">
          <mxGeometry relative="1" as="geometry">
            <mxPoint x="400" y="730" as="targetPoint" />
          </mxGeometry>
        </mxCell>
        <mxCell id="8tt9v9W3umYrC3b42L4H-10" value="INICIA EL JUEGO" style="rounded=0;whiteSpace=wrap;html=1;" vertex="1" parent="1">
          <mxGeometry x="1176" y="590" width="96" height="50" as="geometry" />
        </mxCell>
        <mxCell id="8tt9v9W3umYrC3b42L4H-11" value="" style="edgeStyle=orthogonalEdgeStyle;rounded=0;orthogonalLoop=1;jettySize=auto;html=1;" edge="1" parent="1" source="8tt9v9W3umYrC3b42L4H-12" target="8tt9v9W3umYrC3b42L4H-23">
          <mxGeometry relative="1" as="geometry" />
        </mxCell>
        <mxCell id="8tt9v9W3umYrC3b42L4H-12" value="ABRE AJUSTES" style="rounded=0;whiteSpace=wrap;html=1;" vertex="1" parent="1">
          <mxGeometry x="1332" y="590" width="96" height="50" as="geometry" />
        </mxCell>
        <mxCell id="8tt9v9W3umYrC3b42L4H-13" value="" style="endArrow=classic;html=1;rounded=0;exitX=0.5;exitY=1;exitDx=0;exitDy=0;entryX=0.5;entryY=0;entryDx=0;entryDy=0;" edge="1" parent="1" source="8tt9v9W3umYrC3b42L4H-4" target="8tt9v9W3umYrC3b42L4H-12">
          <mxGeometry width="50" height="50" relative="1" as="geometry">
            <mxPoint x="1220" y="530" as="sourcePoint" />
            <mxPoint x="1220" y="600" as="targetPoint" />
          </mxGeometry>
        </mxCell>
        <mxCell id="8tt9v9W3umYrC3b42L4H-14" value="NO" style="text;html=1;align=center;verticalAlign=middle;whiteSpace=wrap;rounded=0;" vertex="1" parent="1">
          <mxGeometry x="1410" y="450" width="60" height="30" as="geometry" />
        </mxCell>
        <mxCell id="8tt9v9W3umYrC3b42L4H-15" value="NO" style="text;html=1;align=center;verticalAlign=middle;whiteSpace=wrap;rounded=0;" vertex="1" parent="1">
          <mxGeometry x="1264" y="450" width="60" height="30" as="geometry" />
        </mxCell>
        <mxCell id="8tt9v9W3umYrC3b42L4H-16" value="SI" style="text;html=1;align=center;verticalAlign=middle;whiteSpace=wrap;rounded=0;" vertex="1" parent="1">
          <mxGeometry x="1176" y="510" width="60" height="30" as="geometry" />
        </mxCell>
        <mxCell id="8tt9v9W3umYrC3b42L4H-17" value="SI" style="text;html=1;align=center;verticalAlign=middle;whiteSpace=wrap;rounded=0;" vertex="1" parent="1">
          <mxGeometry x="1324" y="510" width="60" height="30" as="geometry" />
        </mxCell>
        <mxCell id="8tt9v9W3umYrC3b42L4H-18" value="" style="edgeStyle=orthogonalEdgeStyle;rounded=0;orthogonalLoop=1;jettySize=auto;html=1;entryX=0.5;entryY=0;entryDx=0;entryDy=0;" edge="1" parent="1" source="8tt9v9W3umYrC3b42L4H-20" target="8tt9v9W3umYrC3b42L4H-78">
          <mxGeometry relative="1" as="geometry">
            <mxPoint x="400" y="1520" as="targetPoint" />
          </mxGeometry>
        </mxCell>
        <mxCell id="8tt9v9W3umYrC3b42L4H-19" value="" style="edgeStyle=orthogonalEdgeStyle;rounded=0;orthogonalLoop=1;jettySize=auto;html=1;entryX=0;entryY=0.5;entryDx=0;entryDy=0;" edge="1" parent="1" source="8tt9v9W3umYrC3b42L4H-20" target="8tt9v9W3umYrC3b42L4H-73">
          <mxGeometry relative="1" as="geometry">
            <mxPoint x="545" y="1430" as="targetPoint" />
          </mxGeometry>
        </mxCell>
        <mxCell id="8tt9v9W3umYrC3b42L4H-20" value="¿Acierta en el animal?" style="rhombus;whiteSpace=wrap;html=1;rounded=0;" vertex="1" parent="1">
          <mxGeometry x="335" y="1390" width="130" height="80" as="geometry" />
        </mxCell>
        <mxCell id="8tt9v9W3umYrC3b42L4H-21" value="" style="edgeStyle=orthogonalEdgeStyle;rounded=0;orthogonalLoop=1;jettySize=auto;html=1;" edge="1" parent="1" source="8tt9v9W3umYrC3b42L4H-23" target="8tt9v9W3umYrC3b42L4H-26">
          <mxGeometry relative="1" as="geometry" />
        </mxCell>
        <mxCell id="8tt9v9W3umYrC3b42L4H-22" value="" style="edgeStyle=orthogonalEdgeStyle;rounded=0;orthogonalLoop=1;jettySize=auto;html=1;" edge="1" parent="1" source="8tt9v9W3umYrC3b42L4H-23" target="8tt9v9W3umYrC3b42L4H-29">
          <mxGeometry relative="1" as="geometry" />
        </mxCell>
        <mxCell id="8tt9v9W3umYrC3b42L4H-23" value="¿Pulsa Idioma?" style="rhombus;whiteSpace=wrap;html=1;rounded=0;" vertex="1" parent="1">
          <mxGeometry x="1340" y="705" width="80" height="80" as="geometry" />
        </mxCell>
        <mxCell id="8tt9v9W3umYrC3b42L4H-24" value="SE QUEDA EN LA PANTALLA DE INICIO" style="text;html=1;align=center;verticalAlign=middle;whiteSpace=wrap;rounded=0;" vertex="1" parent="1">
          <mxGeometry x="1510" y="390" width="60" height="30" as="geometry" />
        </mxCell>
        <mxCell id="8tt9v9W3umYrC3b42L4H-25" value="" style="edgeStyle=orthogonalEdgeStyle;rounded=0;orthogonalLoop=1;jettySize=auto;html=1;" edge="1" parent="1" source="8tt9v9W3umYrC3b42L4H-26" target="8tt9v9W3umYrC3b42L4H-44">
          <mxGeometry relative="1" as="geometry" />
        </mxCell>
        <mxCell id="8tt9v9W3umYrC3b42L4H-26" value="ABRE APARTADO IDIOMA" style="whiteSpace=wrap;html=1;rounded=0;" vertex="1" parent="1">
          <mxGeometry x="1320" y="875" width="120" height="60" as="geometry" />
        </mxCell>
        <mxCell id="8tt9v9W3umYrC3b42L4H-27" value="" style="edgeStyle=orthogonalEdgeStyle;rounded=0;orthogonalLoop=1;jettySize=auto;html=1;" edge="1" parent="1" source="8tt9v9W3umYrC3b42L4H-29" target="8tt9v9W3umYrC3b42L4H-32">
          <mxGeometry relative="1" as="geometry" />
        </mxCell>
        <mxCell id="8tt9v9W3umYrC3b42L4H-28" value="" style="edgeStyle=orthogonalEdgeStyle;rounded=0;orthogonalLoop=1;jettySize=auto;html=1;" edge="1" parent="1" source="8tt9v9W3umYrC3b42L4H-29" target="8tt9v9W3umYrC3b42L4H-36">
          <mxGeometry relative="1" as="geometry" />
        </mxCell>
        <mxCell id="8tt9v9W3umYrC3b42L4H-29" value="¿Pulsa gráficos?" style="rhombus;whiteSpace=wrap;html=1;rounded=0;" vertex="1" parent="1">
          <mxGeometry x="1500" y="705" width="80" height="80" as="geometry" />
        </mxCell>
        <mxCell id="8tt9v9W3umYrC3b42L4H-30" value="" style="edgeStyle=orthogonalEdgeStyle;rounded=0;orthogonalLoop=1;jettySize=auto;html=1;" edge="1" parent="1" source="8tt9v9W3umYrC3b42L4H-32" target="8tt9v9W3umYrC3b42L4H-38">
          <mxGeometry relative="1" as="geometry" />
        </mxCell>
        <mxCell id="8tt9v9W3umYrC3b42L4H-31" value="" style="edgeStyle=orthogonalEdgeStyle;rounded=0;orthogonalLoop=1;jettySize=auto;html=1;" edge="1" parent="1" source="8tt9v9W3umYrC3b42L4H-32" target="8tt9v9W3umYrC3b42L4H-40">
          <mxGeometry relative="1" as="geometry" />
        </mxCell>
        <mxCell id="8tt9v9W3umYrC3b42L4H-32" value="¿Pulsa la X?" style="rhombus;whiteSpace=wrap;html=1;rounded=0;" vertex="1" parent="1">
          <mxGeometry x="1720" y="705" width="80" height="80" as="geometry" />
        </mxCell>
        <mxCell id="8tt9v9W3umYrC3b42L4H-33" value="NO" style="text;html=1;align=center;verticalAlign=middle;whiteSpace=wrap;rounded=0;" vertex="1" parent="1">
          <mxGeometry x="1428" y="715" width="60" height="30" as="geometry" />
        </mxCell>
        <mxCell id="8tt9v9W3umYrC3b42L4H-34" value="NO" style="text;html=1;align=center;verticalAlign=middle;whiteSpace=wrap;rounded=0;" vertex="1" parent="1">
          <mxGeometry x="1600" y="715" width="60" height="30" as="geometry" />
        </mxCell>
        <mxCell id="8tt9v9W3umYrC3b42L4H-35" style="edgeStyle=orthogonalEdgeStyle;rounded=0;orthogonalLoop=1;jettySize=auto;html=1;entryX=0.5;entryY=0;entryDx=0;entryDy=0;" edge="1" parent="1" source="8tt9v9W3umYrC3b42L4H-36" target="8tt9v9W3umYrC3b42L4H-57">
          <mxGeometry relative="1" as="geometry" />
        </mxCell>
        <mxCell id="8tt9v9W3umYrC3b42L4H-36" value="ABRE APARTADO GRÁFICOS" style="whiteSpace=wrap;html=1;rounded=0;" vertex="1" parent="1">
          <mxGeometry x="1480" y="875" width="120" height="60" as="geometry" />
        </mxCell>
        <mxCell id="8tt9v9W3umYrC3b42L4H-37" style="edgeStyle=orthogonalEdgeStyle;rounded=0;orthogonalLoop=1;jettySize=auto;html=1;entryX=0;entryY=0.5;entryDx=0;entryDy=0;" edge="1" parent="1" source="8tt9v9W3umYrC3b42L4H-38" target="8tt9v9W3umYrC3b42L4H-2">
          <mxGeometry relative="1" as="geometry">
            <Array as="points">
              <mxPoint x="1980" y="905" />
              <mxPoint x="1980" y="1420" />
              <mxPoint x="990" y="1420" />
              <mxPoint x="990" y="340" />
            </Array>
          </mxGeometry>
        </mxCell>
        <mxCell id="8tt9v9W3umYrC3b42L4H-38" value="VUELVE A LA PANTALLA DE INICIO" style="whiteSpace=wrap;html=1;rounded=0;" vertex="1" parent="1">
          <mxGeometry x="1700" y="875" width="120" height="60" as="geometry" />
        </mxCell>
        <mxCell id="8tt9v9W3umYrC3b42L4H-39" style="edgeStyle=orthogonalEdgeStyle;rounded=0;orthogonalLoop=1;jettySize=auto;html=1;entryX=0.5;entryY=0;entryDx=0;entryDy=0;exitX=0.5;exitY=0;exitDx=0;exitDy=0;" edge="1" parent="1" source="8tt9v9W3umYrC3b42L4H-40" target="8tt9v9W3umYrC3b42L4H-32">
          <mxGeometry relative="1" as="geometry">
            <Array as="points">
              <mxPoint x="1860" y="685" />
              <mxPoint x="1700" y="685" />
            </Array>
          </mxGeometry>
        </mxCell>
        <mxCell id="8tt9v9W3umYrC3b42L4H-40" value="ESTÁ EN EL APARTADO ACTUAL (DEFAULT DESBLOQUEOS)" style="whiteSpace=wrap;html=1;rounded=0;" vertex="1" parent="1">
          <mxGeometry x="1860" y="715" width="120" height="60" as="geometry" />
        </mxCell>
        <mxCell id="8tt9v9W3umYrC3b42L4H-41" value="NO" style="text;html=1;align=center;verticalAlign=middle;whiteSpace=wrap;rounded=0;" vertex="1" parent="1">
          <mxGeometry x="1793" y="715" width="60" height="30" as="geometry" />
        </mxCell>
        <mxCell id="8tt9v9W3umYrC3b42L4H-42" value="" style="edgeStyle=orthogonalEdgeStyle;rounded=0;orthogonalLoop=1;jettySize=auto;html=1;" edge="1" parent="1" source="8tt9v9W3umYrC3b42L4H-44" target="8tt9v9W3umYrC3b42L4H-45">
          <mxGeometry relative="1" as="geometry" />
        </mxCell>
        <mxCell id="8tt9v9W3umYrC3b42L4H-43" value="" style="edgeStyle=orthogonalEdgeStyle;rounded=0;orthogonalLoop=1;jettySize=auto;html=1;" edge="1" parent="1" source="8tt9v9W3umYrC3b42L4H-44" target="8tt9v9W3umYrC3b42L4H-48">
          <mxGeometry relative="1" as="geometry" />
        </mxCell>
        <mxCell id="8tt9v9W3umYrC3b42L4H-44" value="¿Cambia el idioma a inglés?" style="rhombus;whiteSpace=wrap;html=1;rounded=0;" vertex="1" parent="1">
          <mxGeometry x="1014" y="1020" width="120" height="80" as="geometry" />
        </mxCell>
        <mxCell id="8tt9v9W3umYrC3b42L4H-45" value="IDIOMA INGLÉS" style="whiteSpace=wrap;html=1;rounded=0;" vertex="1" parent="1">
          <mxGeometry x="1014" y="1135" width="120" height="60" as="geometry" />
        </mxCell>
        <mxCell id="8tt9v9W3umYrC3b42L4H-46" value="" style="edgeStyle=orthogonalEdgeStyle;rounded=0;orthogonalLoop=1;jettySize=auto;html=1;" edge="1" parent="1" source="8tt9v9W3umYrC3b42L4H-48" target="8tt9v9W3umYrC3b42L4H-49">
          <mxGeometry relative="1" as="geometry" />
        </mxCell>
        <mxCell id="8tt9v9W3umYrC3b42L4H-47" value="" style="edgeStyle=orthogonalEdgeStyle;rounded=0;orthogonalLoop=1;jettySize=auto;html=1;" edge="1" parent="1" source="8tt9v9W3umYrC3b42L4H-48" target="8tt9v9W3umYrC3b42L4H-50">
          <mxGeometry relative="1" as="geometry" />
        </mxCell>
        <mxCell id="8tt9v9W3umYrC3b42L4H-48" value="¿Cambia el idioma a asturiano?" style="rhombus;whiteSpace=wrap;html=1;rounded=0;" vertex="1" parent="1">
          <mxGeometry x="1164" y="1020" width="120" height="80" as="geometry" />
        </mxCell>
        <mxCell id="8tt9v9W3umYrC3b42L4H-49" value="IDIOMA ASTURIANO" style="whiteSpace=wrap;html=1;rounded=0;" vertex="1" parent="1">
          <mxGeometry x="1164" y="1135" width="120" height="60" as="geometry" />
        </mxCell>
        <mxCell id="8tt9v9W3umYrC3b42L4H-50" value="IDIOMA CASTELLANO" style="whiteSpace=wrap;html=1;rounded=0;" vertex="1" parent="1">
          <mxGeometry x="1327" y="1030" width="120" height="60" as="geometry" />
        </mxCell>
        <mxCell id="8tt9v9W3umYrC3b42L4H-51" value="NO" style="text;html=1;align=center;verticalAlign=middle;whiteSpace=wrap;rounded=0;" vertex="1" parent="1">
          <mxGeometry x="1124" y="1030" width="60" height="30" as="geometry" />
        </mxCell>
        <mxCell id="8tt9v9W3umYrC3b42L4H-52" value="NO" style="text;html=1;align=center;verticalAlign=middle;whiteSpace=wrap;rounded=0;" vertex="1" parent="1">
          <mxGeometry x="1272" y="1030" width="60" height="30" as="geometry" />
        </mxCell>
        <mxCell id="8tt9v9W3umYrC3b42L4H-53" value="SI" style="text;html=1;align=center;verticalAlign=middle;whiteSpace=wrap;rounded=0;" vertex="1" parent="1">
          <mxGeometry x="1061" y="1090" width="60" height="30" as="geometry" />
        </mxCell>
        <mxCell id="8tt9v9W3umYrC3b42L4H-54" value="SI" style="text;html=1;align=center;verticalAlign=middle;whiteSpace=wrap;rounded=0;" vertex="1" parent="1">
          <mxGeometry x="1212" y="1090" width="60" height="30" as="geometry" />
        </mxCell>
        <mxCell id="8tt9v9W3umYrC3b42L4H-55" value="" style="edgeStyle=orthogonalEdgeStyle;rounded=0;orthogonalLoop=1;jettySize=auto;html=1;" edge="1" parent="1" source="8tt9v9W3umYrC3b42L4H-57" target="8tt9v9W3umYrC3b42L4H-58">
          <mxGeometry relative="1" as="geometry" />
        </mxCell>
        <mxCell id="8tt9v9W3umYrC3b42L4H-56" value="" style="edgeStyle=orthogonalEdgeStyle;rounded=0;orthogonalLoop=1;jettySize=auto;html=1;" edge="1" parent="1" source="8tt9v9W3umYrC3b42L4H-57" target="8tt9v9W3umYrC3b42L4H-61">
          <mxGeometry relative="1" as="geometry" />
        </mxCell>
        <mxCell id="8tt9v9W3umYrC3b42L4H-57" value="¿Cambia la calidad a alta?" style="rhombus;whiteSpace=wrap;html=1;rounded=0;" vertex="1" parent="1">
          <mxGeometry x="1480" y="1030" width="120" height="80" as="geometry" />
        </mxCell>
        <mxCell id="8tt9v9W3umYrC3b42L4H-58" value="CALIDAD ALTA" style="whiteSpace=wrap;html=1;rounded=0;" vertex="1" parent="1">
          <mxGeometry x="1480" y="1145" width="120" height="60" as="geometry" />
        </mxCell>
        <mxCell id="8tt9v9W3umYrC3b42L4H-59" value="" style="edgeStyle=orthogonalEdgeStyle;rounded=0;orthogonalLoop=1;jettySize=auto;html=1;" edge="1" parent="1" source="8tt9v9W3umYrC3b42L4H-61" target="8tt9v9W3umYrC3b42L4H-62">
          <mxGeometry relative="1" as="geometry" />
        </mxCell>
        <mxCell id="8tt9v9W3umYrC3b42L4H-60" value="" style="edgeStyle=orthogonalEdgeStyle;rounded=0;orthogonalLoop=1;jettySize=auto;html=1;" edge="1" parent="1" source="8tt9v9W3umYrC3b42L4H-61" target="8tt9v9W3umYrC3b42L4H-63">
          <mxGeometry relative="1" as="geometry" />
        </mxCell>
        <mxCell id="8tt9v9W3umYrC3b42L4H-61" value="¿Cambia la calidad a baja?" style="rhombus;whiteSpace=wrap;html=1;rounded=0;" vertex="1" parent="1">
          <mxGeometry x="1630" y="1030" width="120" height="80" as="geometry" />
        </mxCell>
        <mxCell id="8tt9v9W3umYrC3b42L4H-62" value="CALIDAD BAJA" style="whiteSpace=wrap;html=1;rounded=0;" vertex="1" parent="1">
          <mxGeometry x="1630" y="1145" width="120" height="60" as="geometry" />
        </mxCell>
        <mxCell id="8tt9v9W3umYrC3b42L4H-63" value="CALIDAD MEDIA" style="whiteSpace=wrap;html=1;rounded=0;" vertex="1" parent="1">
          <mxGeometry x="1793" y="1040" width="120" height="60" as="geometry" />
        </mxCell>
        <mxCell id="8tt9v9W3umYrC3b42L4H-64" value="SI" style="text;html=1;align=center;verticalAlign=middle;whiteSpace=wrap;rounded=0;" vertex="1" parent="1">
          <mxGeometry x="1517" y="1100" width="60" height="30" as="geometry" />
        </mxCell>
        <mxCell id="8tt9v9W3umYrC3b42L4H-65" value="SI" style="text;html=1;align=center;verticalAlign=middle;whiteSpace=wrap;rounded=0;" vertex="1" parent="1">
          <mxGeometry x="1668" y="1100" width="60" height="30" as="geometry" />
        </mxCell>
        <mxCell id="8tt9v9W3umYrC3b42L4H-66" value="NO" style="text;html=1;align=center;verticalAlign=middle;whiteSpace=wrap;rounded=0;" vertex="1" parent="1">
          <mxGeometry x="1590" y="1030" width="60" height="30" as="geometry" />
        </mxCell>
        <mxCell id="8tt9v9W3umYrC3b42L4H-67" value="NO" style="text;html=1;align=center;verticalAlign=middle;whiteSpace=wrap;rounded=0;" vertex="1" parent="1">
          <mxGeometry x="1738" y="1030" width="60" height="30" as="geometry" />
        </mxCell>
        <mxCell id="8tt9v9W3umYrC3b42L4H-68" value="SI" style="text;html=1;align=center;verticalAlign=middle;whiteSpace=wrap;rounded=0;" vertex="1" parent="1">
          <mxGeometry x="1368" y="800" width="60" height="30" as="geometry" />
        </mxCell>
        <mxCell id="8tt9v9W3umYrC3b42L4H-69" value="SI" style="text;html=1;align=center;verticalAlign=middle;whiteSpace=wrap;rounded=0;" vertex="1" parent="1">
          <mxGeometry x="1530" y="800" width="60" height="30" as="geometry" />
        </mxCell>
        <mxCell id="8tt9v9W3umYrC3b42L4H-70" value="SI" style="text;html=1;align=center;verticalAlign=middle;whiteSpace=wrap;rounded=0;" vertex="1" parent="1">
          <mxGeometry x="1690" y="800" width="60" height="30" as="geometry" />
        </mxCell>
        <mxCell id="8tt9v9W3umYrC3b42L4H-92" style="edgeStyle=orthogonalEdgeStyle;rounded=0;orthogonalLoop=1;jettySize=auto;html=1;entryX=0.981;entryY=0.929;entryDx=0;entryDy=0;entryPerimeter=0;exitX=1;exitY=0.5;exitDx=0;exitDy=0;" edge="1" parent="1" source="8tt9v9W3umYrC3b42L4H-73" target="8tt9v9W3umYrC3b42L4H-89">
          <mxGeometry relative="1" as="geometry">
            <Array as="points">
              <mxPoint x="710" y="1430" />
              <mxPoint x="710" y="1286" />
            </Array>
          </mxGeometry>
        </mxCell>
        <mxCell id="8tt9v9W3umYrC3b42L4H-73" value="PIERDE RACHA Y PIERDE 50 PTS (SI TIENE)" style="whiteSpace=wrap;html=1;rounded=0;" vertex="1" parent="1">
          <mxGeometry x="550" y="1400" width="120" height="60" as="geometry" />
        </mxCell>
        <mxCell id="8tt9v9W3umYrC3b42L4H-75" value="SI" style="text;html=1;align=center;verticalAlign=middle;whiteSpace=wrap;rounded=0;" vertex="1" parent="1">
          <mxGeometry x="390" y="1475" width="60" height="30" as="geometry" />
        </mxCell>
        <mxCell id="8tt9v9W3umYrC3b42L4H-76" value="" style="edgeStyle=orthogonalEdgeStyle;rounded=0;orthogonalLoop=1;jettySize=auto;html=1;" edge="1" parent="1" source="8tt9v9W3umYrC3b42L4H-78" target="8tt9v9W3umYrC3b42L4H-79">
          <mxGeometry relative="1" as="geometry" />
        </mxCell>
        <mxCell id="8tt9v9W3umYrC3b42L4H-77" value="" style="edgeStyle=orthogonalEdgeStyle;rounded=0;orthogonalLoop=1;jettySize=auto;html=1;" edge="1" parent="1" source="8tt9v9W3umYrC3b42L4H-78" target="8tt9v9W3umYrC3b42L4H-80">
          <mxGeometry relative="1" as="geometry" />
        </mxCell>
        <mxCell id="8tt9v9W3umYrC3b42L4H-78" value="¿Tiene una racha?" style="rhombus;whiteSpace=wrap;html=1;rounded=0;" vertex="1" parent="1">
          <mxGeometry x="360" y="1575" width="80" height="80" as="geometry" />
        </mxCell>
        <mxCell id="8tt9v9W3umYrC3b42L4H-93" style="edgeStyle=orthogonalEdgeStyle;rounded=0;orthogonalLoop=1;jettySize=auto;html=1;entryX=0.992;entryY=0.65;entryDx=0;entryDy=0;entryPerimeter=0;" edge="1" parent="1" source="8tt9v9W3umYrC3b42L4H-79" target="8tt9v9W3umYrC3b42L4H-89">
          <mxGeometry relative="1" as="geometry">
            <Array as="points">
              <mxPoint x="740" y="1270" />
              <mxPoint x="460" y="1270" />
            </Array>
          </mxGeometry>
        </mxCell>
        <mxCell id="8tt9v9W3umYrC3b42L4H-79" value="INICIA UNA RACHA DE PUNTOS&amp;nbsp;&lt;div&gt;( BASE&amp;nbsp; +&amp;nbsp; (BASE*0.25)&amp;nbsp; )&lt;/div&gt;" style="whiteSpace=wrap;html=1;rounded=0;" vertex="1" parent="1">
          <mxGeometry x="560" y="1585" width="230" height="60" as="geometry" />
        </mxCell>
        <mxCell id="8tt9v9W3umYrC3b42L4H-94" style="edgeStyle=orthogonalEdgeStyle;rounded=0;orthogonalLoop=1;jettySize=auto;html=1;entryX=1;entryY=0.5;entryDx=0;entryDy=0;exitX=1;exitY=0.5;exitDx=0;exitDy=0;" edge="1" parent="1" source="8tt9v9W3umYrC3b42L4H-80" target="8tt9v9W3umYrC3b42L4H-89">
          <mxGeometry relative="1" as="geometry">
            <Array as="points">
              <mxPoint x="495" y="1790" />
              <mxPoint x="860" y="1790" />
              <mxPoint x="860" y="1260" />
            </Array>
          </mxGeometry>
        </mxCell>
        <mxCell id="8tt9v9W3umYrC3b42L4H-80" value="AUMENTA EL MULTIPLICADOR DE LA SUMA A LA BASE DE PTS EN 0.25 Y SUMA 100PTS POR EL MULTIPLICADOR" style="whiteSpace=wrap;html=1;rounded=0;" vertex="1" parent="1">
          <mxGeometry x="305" y="1735" width="190" height="120" as="geometry" />
        </mxCell>
        <mxCell id="8tt9v9W3umYrC3b42L4H-81" value="Fotografía en el parque" style="rounded=0;whiteSpace=wrap;html=1;fontSize=28;" vertex="1" parent="1">
          <mxGeometry x="1121" y="180" width="206" height="100" as="geometry" />
        </mxCell>
        <mxCell id="8tt9v9W3umYrC3b42L4H-90" style="edgeStyle=orthogonalEdgeStyle;rounded=0;orthogonalLoop=1;jettySize=auto;html=1;entryX=0.5;entryY=0;entryDx=0;entryDy=0;exitX=0.5;exitY=1;exitDx=0;exitDy=0;" edge="1" parent="1" source="8tt9v9W3umYrC3b42L4H-95" target="8tt9v9W3umYrC3b42L4H-102">
          <mxGeometry relative="1" as="geometry" />
        </mxCell>
        <mxCell id="8tt9v9W3umYrC3b42L4H-82" value="INICIA CONTADOR DE 2:00" style="rounded=0;whiteSpace=wrap;html=1;" vertex="1" parent="1">
          <mxGeometry x="340" y="740" width="120" height="60" as="geometry" />
        </mxCell>
        <mxCell id="8tt9v9W3umYrC3b42L4H-86" value="PUNTUACION BASE 100PTS" style="ellipse;whiteSpace=wrap;html=1;fillColor=#d80073;fontColor=#ffffff;strokeColor=#A50040;" vertex="1" parent="1">
          <mxGeometry x="570" y="1040" width="150" height="90" as="geometry" />
        </mxCell>
        <mxCell id="8tt9v9W3umYrC3b42L4H-87" value="NO" style="text;html=1;align=center;verticalAlign=middle;whiteSpace=wrap;rounded=0;" vertex="1" parent="1">
          <mxGeometry x="470" y="1585" width="60" height="30" as="geometry" />
        </mxCell>
        <mxCell id="8tt9v9W3umYrC3b42L4H-88" value="SI" style="text;html=1;align=center;verticalAlign=middle;whiteSpace=wrap;rounded=0;" vertex="1" parent="1">
          <mxGeometry x="400" y="1655" width="60" height="30" as="geometry" />
        </mxCell>
        <mxCell id="8tt9v9W3umYrC3b42L4H-91" style="edgeStyle=orthogonalEdgeStyle;rounded=0;orthogonalLoop=1;jettySize=auto;html=1;entryX=0.5;entryY=0;entryDx=0;entryDy=0;" edge="1" parent="1" source="8tt9v9W3umYrC3b42L4H-89" target="8tt9v9W3umYrC3b42L4H-20">
          <mxGeometry relative="1" as="geometry" />
        </mxCell>
        <mxCell id="8tt9v9W3umYrC3b42L4H-89" value="HACE CLICK EN IMAGEN" style="rounded=0;whiteSpace=wrap;html=1;" vertex="1" parent="1">
          <mxGeometry x="340" y="1230" width="120" height="60" as="geometry" />
        </mxCell>
        <mxCell id="8tt9v9W3umYrC3b42L4H-96" value="" style="edgeStyle=orthogonalEdgeStyle;rounded=0;orthogonalLoop=1;jettySize=auto;html=1;entryX=0.5;entryY=0;entryDx=0;entryDy=0;" edge="1" parent="1" source="8tt9v9W3umYrC3b42L4H-82" target="8tt9v9W3umYrC3b42L4H-95">
          <mxGeometry relative="1" as="geometry">
            <mxPoint x="400" y="800" as="sourcePoint" />
            <mxPoint x="400" y="1230" as="targetPoint" />
          </mxGeometry>
        </mxCell>
        <mxCell id="8tt9v9W3umYrC3b42L4H-100" value="" style="edgeStyle=orthogonalEdgeStyle;rounded=0;orthogonalLoop=1;jettySize=auto;html=1;" edge="1" parent="1" source="8tt9v9W3umYrC3b42L4H-95" target="8tt9v9W3umYrC3b42L4H-99">
          <mxGeometry relative="1" as="geometry" />
        </mxCell>
        <mxCell id="8tt9v9W3umYrC3b42L4H-95" value="¿Hay tiempo restante?" style="rhombus;whiteSpace=wrap;html=1;rounded=0;" vertex="1" parent="1">
          <mxGeometry x="335" y="840" width="130" height="80" as="geometry" />
        </mxCell>
        <mxCell id="8tt9v9W3umYrC3b42L4H-97" value="NO" style="text;html=1;align=center;verticalAlign=middle;whiteSpace=wrap;rounded=0;" vertex="1" parent="1">
          <mxGeometry x="473" y="850" width="60" height="30" as="geometry" />
        </mxCell>
        <mxCell id="8tt9v9W3umYrC3b42L4H-98" value="SI" style="text;html=1;align=center;verticalAlign=middle;whiteSpace=wrap;rounded=0;" vertex="1" parent="1">
          <mxGeometry x="390" y="935" width="60" height="30" as="geometry" />
        </mxCell>
        <mxCell id="8tt9v9W3umYrC3b42L4H-106" value="" style="edgeStyle=orthogonalEdgeStyle;rounded=0;orthogonalLoop=1;jettySize=auto;html=1;" edge="1" parent="1" source="8tt9v9W3umYrC3b42L4H-99" target="8tt9v9W3umYrC3b42L4H-105">
          <mxGeometry relative="1" as="geometry" />
        </mxCell>
        <mxCell id="8tt9v9W3umYrC3b42L4H-99" value="SE TERMINA EL JUEGO Y MUESTRA EL PUNTAJE FINAL" style="whiteSpace=wrap;html=1;rounded=0;" vertex="1" parent="1">
          <mxGeometry x="540" y="850" width="120" height="60" as="geometry" />
        </mxCell>
        <mxCell id="8tt9v9W3umYrC3b42L4H-103" style="edgeStyle=orthogonalEdgeStyle;rounded=0;orthogonalLoop=1;jettySize=auto;html=1;entryX=0.5;entryY=0;entryDx=0;entryDy=0;" edge="1" parent="1" source="8tt9v9W3umYrC3b42L4H-102" target="8tt9v9W3umYrC3b42L4H-89">
          <mxGeometry relative="1" as="geometry" />
        </mxCell>
        <mxCell id="8tt9v9W3umYrC3b42L4H-102" value="APARECE ANIMAL" style="rounded=0;whiteSpace=wrap;html=1;" vertex="1" parent="1">
          <mxGeometry x="340" y="1030" width="120" height="60" as="geometry" />
        </mxCell>
        <mxCell id="8tt9v9W3umYrC3b42L4H-104" value="&lt;font style=&quot;font-size: 22px;&quot;&gt;FLUJO JUEGO&lt;/font&gt;" style="shape=process;whiteSpace=wrap;html=1;backgroundOutline=1;" vertex="1" parent="1">
          <mxGeometry x="545" y="690" width="260" height="120" as="geometry" />
        </mxCell>
        <mxCell id="8tt9v9W3umYrC3b42L4H-107" style="edgeStyle=orthogonalEdgeStyle;rounded=0;orthogonalLoop=1;jettySize=auto;html=1;entryX=0;entryY=0.5;entryDx=0;entryDy=0;exitX=0.5;exitY=1;exitDx=0;exitDy=0;" edge="1" parent="1" source="8tt9v9W3umYrC3b42L4H-105" target="8tt9v9W3umYrC3b42L4H-82">
          <mxGeometry relative="1" as="geometry">
            <Array as="points">
              <mxPoint x="740" y="980" />
              <mxPoint x="320" y="980" />
              <mxPoint x="320" y="770" />
            </Array>
          </mxGeometry>
        </mxCell>
        <mxCell id="8tt9v9W3umYrC3b42L4H-111" value="" style="edgeStyle=orthogonalEdgeStyle;rounded=0;orthogonalLoop=1;jettySize=auto;html=1;" edge="1" parent="1" source="8tt9v9W3umYrC3b42L4H-105" target="8tt9v9W3umYrC3b42L4H-110">
          <mxGeometry relative="1" as="geometry" />
        </mxCell>
        <mxCell id="8tt9v9W3umYrC3b42L4H-105" value="¿Pulsa Volver a jugar?" style="rhombus;whiteSpace=wrap;html=1;rounded=0;" vertex="1" parent="1">
          <mxGeometry x="700" y="840" width="80" height="80" as="geometry" />
        </mxCell>
        <mxCell id="8tt9v9W3umYrC3b42L4H-108" value="NO" style="text;html=1;align=center;verticalAlign=middle;whiteSpace=wrap;rounded=0;" vertex="1" parent="1">
          <mxGeometry x="767" y="847.5" width="60" height="30" as="geometry" />
        </mxCell>
        <mxCell id="8tt9v9W3umYrC3b42L4H-109" value="SI" style="text;html=1;align=center;verticalAlign=middle;whiteSpace=wrap;rounded=0;" vertex="1" parent="1">
          <mxGeometry x="684" y="932.5" width="60" height="30" as="geometry" />
        </mxCell>
        <mxCell id="8tt9v9W3umYrC3b42L4H-112" style="edgeStyle=orthogonalEdgeStyle;rounded=0;orthogonalLoop=1;jettySize=auto;html=1;entryX=0;entryY=0.5;entryDx=0;entryDy=0;exitX=0.5;exitY=1;exitDx=0;exitDy=0;" edge="1" parent="1" source="8tt9v9W3umYrC3b42L4H-110" target="8tt9v9W3umYrC3b42L4H-2">
          <mxGeometry relative="1" as="geometry">
            <Array as="points">
              <mxPoint x="860" y="1010" />
              <mxPoint x="1050" y="1010" />
              <mxPoint x="1050" y="340" />
            </Array>
          </mxGeometry>
        </mxCell>
        <mxCell id="8tt9v9W3umYrC3b42L4H-115" value="" style="edgeStyle=orthogonalEdgeStyle;rounded=0;orthogonalLoop=1;jettySize=auto;html=1;" edge="1" parent="1" source="8tt9v9W3umYrC3b42L4H-110" target="8tt9v9W3umYrC3b42L4H-114">
          <mxGeometry relative="1" as="geometry" />
        </mxCell>
        <mxCell id="8tt9v9W3umYrC3b42L4H-110" value="¿Pulsa Inicio?" style="rhombus;whiteSpace=wrap;html=1;rounded=0;" vertex="1" parent="1">
          <mxGeometry x="820" y="840" width="80" height="80" as="geometry" />
        </mxCell>
        <mxCell id="8tt9v9W3umYrC3b42L4H-114" value="SE QUEDA EN LA PANTALLA FINAL" style="whiteSpace=wrap;html=1;rounded=0;" vertex="1" parent="1">
          <mxGeometry x="920" y="850" width="120" height="60" as="geometry" />
        </mxCell>
        <mxCell id="8tt9v9W3umYrC3b42L4H-116" value="NO" style="text;html=1;align=center;verticalAlign=middle;whiteSpace=wrap;rounded=0;" vertex="1" parent="1">
          <mxGeometry x="870" y="840" width="60" height="30" as="geometry" />
        </mxCell>
        <mxCell id="8tt9v9W3umYrC3b42L4H-117" value="SI" style="text;html=1;align=center;verticalAlign=middle;whiteSpace=wrap;rounded=0;" vertex="1" parent="1">
          <mxGeometry x="860" y="915" width="60" height="30" as="geometry" />
        </mxCell>
        <mxCell id="8tt9v9W3umYrC3b42L4H-118" value="NO" style="text;html=1;align=center;verticalAlign=middle;whiteSpace=wrap;rounded=0;" vertex="1" parent="1">
          <mxGeometry x="450" y="1400" width="60" height="30" as="geometry" />
        </mxCell>
      </root>
    </mxGraphModel>
  </diagram>
</mxfile>
